<?xml version="1.0" encoding="utf-8"?>
<!-- Generator: Adobe Illustrator 25.2.1, SVG Export Plug-In . SVG Version: 6.00 Build 0)  -->
<svg version="1.1" id="Laag_1" xmlns="http://www.w3.org/2000/svg" xmlns:xlink="http://www.w3.org/1999/xlink" x="0px" y="0px"
	 viewBox="0 0 595.28 595.28" style="enable-background:new 0 0 595.28 595.28;" xml:space="preserve">
<style type="text/css">
	.st0{fill:#46A3DB;}
</style>
<path class="st0" d="M536.83,548.46H73.65c-13.79,0-25-11.21-25-25V60.29c0-13.79,11.21-25,25-25h463.17c13.79,0,25,11.21,25,25
	v463.18C561.83,537.25,550.61,548.46,536.83,548.46z M74.65,522.46h461.17V61.29H74.65V522.46z"/>
<g>
	<g>
		<g>
			<path class="st0" d="M100.94,156.28h142.9v28.54H135.39v88.34h100.2v28.37h-100.2V421.6h-34.45V156.28z"/>
			<path class="st0" d="M459.79,176.42v54.81h49.75v26.23h-49.75v102.6c0,23.72,6.83,37.12,26.18,37.12c8.97,0,15.51-1.1,20.06-2.51
				l1.58,26.31c-6.72,2.65-17.48,4.76-30.93,4.76c-15.91,0-29.13-5.25-37.37-14.66c-9.54-10.5-13.44-27.29-13.44-49.66V257.46
				h-29.49v-26.23h29.49v-45.86L459.79,176.42z"/>
		</g>
		<g>
			<path class="st0" d="M327.15,246.19c5.36,8.95,9.65,17.17,14.85,24.34c2.4,3.3,6.55,6.26,9.97,6.38
				c10.72,0.4,21.48-0.49,32.21-1.15c5.87-0.36,9.67-5.37,9.68-12.08c0-6.95-4.15-12.06-10.29-12.06
				c-7.58-0.01-15.18,0.12-22.75,0.72c-3.73,0.3-6.73-0.36-8.41-4.85c-10.45-27.87-31.11-37.18-52.31-44.55
				c-7.09-2.46-15.06-1.21-22.63-1.09c-25.73,0.4-18.54-4.48-33.89,22.4c-3.08,5.39-6.16,10.78-9.06,16.32
				c-3.57,6.8-2.62,14.34,2.1,18.26c4.66,3.88,10.01,2.48,13.76-4c4.6-7.94,8.81-16.23,13.54-24.03c1.31-2.16,3.84-4.22,5.91-4.39
				c6.71-0.55,13.46-0.21,21.02-0.21c-0.6,2.7-0.95,4.87-1.56,6.91c-10.92,36.21-21.94,72.37-32.74,108.65
				c-1.42,4.77-3.62,7.11-7.39,8.46c-12.54,4.49-25.02,9.27-37.49,14.08c-8.18,3.16-11.77,10.32-9.68,18.84
				c2.15,8.8,8.1,12.34,16.19,9.33c15.53-5.79,30.99-11.88,46.56-17.54c5.12-1.86,8.33-5.5,10.23-11.73
				c3.73-12.31,7.75-24.48,11.95-37.66c11.16,11.2,21.76,21.6,32.05,32.45c1.39,1.46,1.77,5.18,1.79,7.87
				c0.16,16.74,0.02,33.49,0.1,50.24c0.05,10.41,4.84,17.21,11.74,17.02c6.75-0.19,11.34-6.75,11.37-16.69
				c0.08-20.73-0.08-41.47,0.08-62.2c0.05-6.45-1.82-11.14-5.78-15.04c-8.81-8.65-17.42-17.63-26.26-26.22
				c-2.53-2.46-3.32-4.61-2.12-8.57C315.62,285.56,321.12,266.63,327.15,246.19z"/>
			<path class="st0" d="M345.11,177.66c-0.2-15.59-10.04-27.4-22.51-27.02c-11.98,0.36-21.51,12.72-21.45,27.81
				c0.06,15.32,10.12,27.64,22.39,27.41C336,205.63,345.32,193.45,345.11,177.66z"/>
		</g>
	</g>
</g>
</svg>
