<?xml version="1.0" encoding="utf-8"?>
<!-- Generator: Adobe Illustrator 25.2.1, SVG Export Plug-In . SVG Version: 6.00 Build 0)  -->
<svg version="1.1" id="App_Icon_Kit_A" xmlns="http://www.w3.org/2000/svg" xmlns:xlink="http://www.w3.org/1999/xlink" x="0px"
	 y="0px" viewBox="0 0 1024 1024" style="enable-background:new 0 0 1024 1024;" xml:space="preserve">
<style type="text/css">
	.st0{fill:#FFFFFF;}
	.st1{fill:url(#App_Icon_Placeholder_34_);}
	.st2{opacity:0.71;}
	.st3{fill:#FE1211;}
	.st4{fill:#41A1DA;}
	.st5{fill:#2B193D;}
	.st6{fill:#C5979D;}
</style>
<symbol  id="FitMovement_2" viewBox="-375 -191.59 751 519.21">
	<g>
		<g>
			<g>
				<path class="st0" d="M-375,317.22h262.64v-52.46h-199.33V102.39h184.18V50.26h-184.18v-220.69H-375V317.22z"/>
				<path class="st0" d="M284.57,280.2V179.47H376v-48.21h-91.43V-57.31c0-43.59,12.55-68.22,48.13-68.22
					c16.49,0,28.5,2.03,36.87,4.61l2.91-48.35c-12.36-4.87-32.12-8.76-56.86-8.76c-29.24,0-53.54,9.64-68.69,26.94
					c-17.53,19.3-24.7,50.17-24.7,91.28v191.08h-54.2v48.21h54.2v84.29L284.57,280.2z"/>
			</g>
			<g>
				<path class="st0" d="M40.78,151.98c9.85-16.46,17.73-31.56,27.29-44.73c4.41-6.07,12.03-11.5,18.32-11.73
					c19.7-0.73,39.48,0.91,59.21,2.11c10.8,0.66,17.78,9.87,17.79,22.2c0.01,12.78-7.62,22.16-18.92,22.17
					c-13.94,0.01-27.91-0.22-41.81-1.33c-6.86-0.54-12.37,0.66-15.46,8.91c-19.21,51.23-57.18,68.33-96.15,81.89
					c-13.03,4.53-27.68,2.22-41.59,2.01c-47.29-0.73-34.08,8.23-62.29-41.16c-5.66-9.9-11.31-19.81-16.65-29.99
					c-6.55-12.51-4.81-26.36,3.86-33.57c8.57-7.12,18.4-4.56,25.3,7.36c8.45,14.58,16.19,29.84,24.89,44.17
					c2.41,3.97,7.06,7.75,10.86,8.06c12.32,1.01,24.73,0.38,38.64,0.38c-1.11-4.97-1.74-8.95-2.87-12.7
					C-48.88,109.47-69.14,43-88.98-23.66c-2.61-8.77-6.64-13.08-13.57-15.56c-23.06-8.25-46-17.04-68.91-25.89
					c-15.03-5.8-21.62-18.97-17.79-34.62c3.96-16.18,14.88-22.69,29.75-17.15c28.55,10.64,56.97,21.84,85.57,32.23
					c9.4,3.42,15.32,10.1,18.8,21.56c6.86,22.62,14.25,44.99,21.97,69.21c20.51-20.59,39.99-39.71,58.91-59.64
					c2.55-2.69,3.25-9.52,3.29-14.46c0.29-30.78,0.04-61.56,0.18-92.34c0.09-19.13,8.89-31.64,21.58-31.28
					c12.4,0.35,20.83,12.41,20.9,30.68c0.14,38.11-0.15,76.22,0.16,114.32c0.09,11.85-3.34,20.48-10.63,27.64
					c-16.19,15.9-32.02,32.4-48.27,48.2c-4.65,4.51-6.11,8.48-3.89,15.76C19.58,79.61,29.69,114.4,40.78,151.98z"/>
				<path class="st0" d="M73.79,277.93c-0.37,28.65-18.46,50.36-41.38,49.67c-22.02-0.67-39.53-23.38-39.42-51.12
					c0.11-28.16,18.6-50.8,41.16-50.37C57.04,226.53,74.16,248.92,73.79,277.93z"/>
			</g>
		</g>
	</g>
</symbol>
<symbol  id="Icon" viewBox="-512 -512 1024 1024">
	
		<linearGradient id="App_Icon_Placeholder_34_" gradientUnits="userSpaceOnUse" x1="-443.9207" y1="-443.9202" x2="443.9207" y2="443.9212">
		<stop  offset="0" style="stop-color:#C5979D"/>
		<stop  offset="1" style="stop-color:#41A1DA"/>
	</linearGradient>
	<path id="App_Icon_Placeholder_35_" class="st1" d="M-155.01,512h310c102.81,0,154.19,0,209.53-17.49
		c60.42-21.99,108-69.58,129.98-129.99C512,309.17,512,257.78,512,154.99v-309.98c0-102.8,0-154.19-17.5-209.53
		c-21.98-60.42-69.57-108-129.98-129.98C309.18-512,257.8-512,154.99-512h-310c-102.79,0-154.18,0-209.51,17.5
		c-60.42,21.98-108,69.57-129.98,129.98C-512-309.18-512-257.79-512-154.99v309.98c0,102.79,0,154.18,17.5,209.53
		c21.98,60.42,69.57,108,129.98,129.99C-309.18,512-257.8,512-155.01,512L-155.01,512"/>
	
		<use xlink:href="#FitMovement_2"  width="751" height="519.21" id="XMLID_36_" x="-375" y="-191.59" transform="matrix(1.0477 0 0 1.0498 -0.5238 5.795871e-06)" style="overflow:visible;"/>
	<g>
		<path class="st0" d="M-382.27-252.22h51.25v-10.31h-38.97v-31.63h36v-10.17h-36v-43.06h-12.28V-252.22z"/>
		<path class="st0" d="M-303.77-259.84c0.14-4.24-2.97-7.62-7.91-7.62c-4.38,0-7.48,3.39-7.48,7.62c0,4.38,3.25,7.77,7.77,7.77
			C-306.73-252.08-303.77-255.47-303.77-259.84z M-317.6-347.38v68.34h12.42v-68.34H-317.6z"/>
		<path class="st0" d="M-269.6-259.42v-19.62h17.79v-9.46h-17.79v-36.85c0-8.47,2.4-13.27,9.32-13.27c3.25,0,5.65,0.42,7.2,0.85
			l0.56-9.32c-2.4-0.99-6.21-1.69-11.01-1.69c-5.79,0-10.45,1.84-13.41,5.22c-3.53,3.67-4.8,9.74-4.8,17.79v37.27h-10.59v9.46h10.59
			v16.38L-269.6-259.42z"/>
		<path class="st0" d="M-157.21-305.59c-0.71,13.27-1.55,29.23-1.41,41.09h-0.42c-3.25-11.15-7.2-23.01-12-36.14l-16.8-46.17h-9.32
			l-15.39,45.32c-4.52,13.41-8.33,25.7-11.01,36.99h-0.28c-0.28-11.86-0.99-27.81-1.84-42.07l-2.54-40.8h-11.72l6.64,95.16h15.67
			l16.24-46.03c3.95-11.72,7.2-22.17,9.6-32.05h0.42c2.4,9.6,5.79,20.05,10.02,32.05l16.94,46.03h15.67l5.93-95.16h-12
			L-157.21-305.59z"/>
		<path class="st0" d="M-61.63-312.65c0-25.27-17.51-36.29-34.03-36.29c-18.5,0-32.76,13.55-32.76,35.16
			c0,22.87,14.97,36.29,33.89,36.29C-74.9-277.49-61.63-291.75-61.63-312.65z M-115.85-313.35c0-14.97,8.61-26.26,20.75-26.26
			c11.86,0,20.75,11.15,20.75,26.54c0,11.58-5.79,26.26-20.47,26.26S-115.85-300.36-115.85-313.35z"/>
		<path class="st0" d="M-42.14-279.04l13.41-38.4c2.26-6.21,4.09-11.86,5.51-17.51h0.42c1.55,5.65,3.53,11.29,5.79,17.51l13.27,38.4
			H9.25l-26.83-68.34h-11.86l-25.98,68.34H-42.14z"/>
		<path class="st0" d="M26.47-315.47c0.28-16.8,11.01-23.72,23.44-23.72c8.9,0,14.26,1.55,18.92,3.53l2.12-8.89
			c-4.38-1.98-11.86-4.24-22.73-4.24c-21.04,0-33.6,13.84-33.6,34.45c0,20.61,12.14,36.85,32.05,36.85
			c22.31,0,28.24-19.62,28.24-32.19c0-2.54-0.28-4.52-0.42-5.79H26.47z M62.9-306.58c0.14,7.91-3.25,20.19-17.23,20.19
			c-12.57,0-18.07-11.58-19.06-20.19H62.9z"/>
		<path class="st0" d="M90.29-297.54c0,7.06-0.14,12.85-0.56,18.5h10.87l0.56-11.01h0.42c3.81,6.49,10.17,12.57,21.46,12.57
			c9.32,0,16.38-5.65,19.34-13.7h0.28c2.12,3.81,4.8,6.78,7.62,8.9c4.09,3.11,8.61,4.8,15.11,4.8c9.04,0,22.45-5.93,22.45-29.65
			v-40.24h-12.14v38.69c0,13.13-4.8,21.04-14.82,21.04c-7.06,0-12.57-5.22-14.68-11.3c-0.56-1.69-0.99-3.95-0.99-6.21v-42.22h-12.14
			v40.95c0,10.87-4.8,18.78-14.26,18.78c-7.77,0-13.41-6.21-15.39-12.42c-0.71-1.84-0.99-3.95-0.99-6.07v-41.23H90.29V-297.54z"/>
		<path class="st0" d="M214.96-315.47c0.28-16.8,11.01-23.72,23.44-23.72c8.9,0,14.26,1.55,18.92,3.53l2.12-8.89
			c-4.38-1.98-11.86-4.24-22.73-4.24c-21.04,0-33.6,13.84-33.6,34.45c0,20.61,12.14,36.85,32.05,36.85
			c22.31,0,28.24-19.62,28.24-32.19c0-2.54-0.28-4.52-0.42-5.79H214.96z M251.39-306.58c0.14,7.91-3.25,20.19-17.23,20.19
			c-12.57,0-18.07-11.58-19.06-20.19H251.39z"/>
		<path class="st0" d="M278.78-297.54c0,7.06-0.14,12.85-0.56,18.5h11.01l0.71-11.29h0.28c3.39,6.49,11.3,12.85,22.59,12.85
			c9.46,0,24.14-5.65,24.14-29.08v-40.8h-12.42v39.39c0,11.01-4.09,20.19-15.81,20.19c-8.19,0-14.54-5.79-16.66-12.71
			c-0.56-1.55-0.85-3.67-0.85-5.79v-41.09h-12.42V-297.54z"/>
		<path class="st0" d="M371.54-259.42v-19.62h17.79v-9.46h-17.79v-36.85c0-8.47,2.4-13.27,9.32-13.27c3.25,0,5.65,0.42,7.2,0.85
			l0.56-9.32c-2.4-0.99-6.21-1.69-11.01-1.69c-5.79,0-10.45,1.84-13.41,5.22c-3.53,3.67-4.8,9.74-4.8,17.79v37.27h-10.59v9.46h10.59
			v16.38L371.54-259.42z"/>
	</g>
</symbol>
<g id="Notifications_and_Activity_-_Preview">
	<g id="Loading">
		
			<use xlink:href="#Icon"  width="1024" height="1024" x="-512" y="-512" transform="matrix(0.1172 0 0 -0.1172 1919.0704 1137.3715)" style="overflow:visible;"/>
		<g id="App_Icon_Loading_Indicator_Overlay_2_" class="st2">
			<path d="M1918.07,1103.63c-18.23,0-33,14.77-33,33s14.77,33,33,33c18.23,0,33-14.77,33-33c0-1.99-0.19-3.94-0.52-5.83
				l-32.48,5.83V1103.63z"/>
			<path d="M1977.02,1094.65c-2.58-7.08-8.15-12.66-15.23-15.23c-6.48-2.05-12.51-2.05-24.55-2.05h-36.33
				c-12.05,0-18.07,0-24.55,2.05c-7.08,2.58-12.66,8.15-15.23,15.23c-2.05,6.49-2.05,12.51-2.05,24.55v36.33
				c0,12.05,0,18.07,2.05,24.55c2.58,7.08,8.15,12.66,15.23,15.23c6.48,2.05,12.51,2.05,24.55,2.05h36.33
				c12.05,0,18.07,0,24.55-2.05c7.08-2.58,12.66-8.15,15.23-15.23c2.05-6.48,2.05-12.51,2.05-24.55v-36.33
				C1979.07,1107.16,1979.07,1101.14,1977.02,1094.65z M1919.07,1176.37c-21.54,0-39-17.46-39-39s17.46-39,39-39
				c21.54,0,39,17.46,39,39S1940.61,1176.37,1919.07,1176.37z"/>
		</g>
	</g>
	<g id="Two_Digit_Badge">
		
			<use xlink:href="#Icon"  width="1024" height="1024" x="-512" y="-512" transform="matrix(0.1172 0 0 -0.1172 1698.5704 1137.001)" style="overflow:visible;"/>
		<g id="Badge_4_">
			<path id="Badge_Background_6_" class="st3" d="M1753.57,1104.26h-16c-13.25,0-24-10.75-24-24v0c0-13.25,10.75-24,24-24h16
				c13.25,0,24,10.75,24,24v0C1777.57,1093.51,1766.83,1104.26,1753.57,1104.26z"/>
			<text transform="matrix(1 0 0 1 1726.9531 1091.5332)" class="st0" style="font-family:'OpenSans'; font-size:32px;">34</text>
		</g>
	</g>
	<g id="One_Digit_Badge">
		
			<use xlink:href="#Icon"  width="1024" height="1024" x="-512" y="-512" transform="matrix(0.1172 0 0 -0.1172 1477.5704 1136.8475)" style="overflow:visible;"/>
		<g id="Badge_1_">
			<g id="Badge_Background_1_">
				<path class="st3" d="M1557.57,1081.01c0,12.24-10.01,22.25-22.25,22.25h-2.5c-12.24,0-22.25-10.01-22.25-22.25v-2.5
					c0-12.24,10.01-22.25,22.25-22.25h2.5c12.24,0,22.25,10.01,22.25,22.25V1081.01z"/>
			</g>
			<text transform="matrix(1 0 0 1 1525.1016 1091.5332)" class="st0" style="font-family:'OpenSans'; font-size:32px;">1</text>
		</g>
	</g>
	<text transform="matrix(1 0 0 1 1423.5706 983.071)" style="font-family:'OpenSans'; font-size:33px;">Notifications and Activity</text>
</g>
<g id="Settings_Icon_-_Preview_Sizes">
	<g id="_x32_9_1_">
		
			<use xlink:href="#Icon"  width="1024" height="1024" x="-512" y="-512" transform="matrix(0.0283 0 0 -0.0283 2048.5 732.5)" style="overflow:visible;"/>
		<text transform="matrix(1 0 0 1 2036.7112 791.2036)" style="font-family:'OpenSans'; font-size:20px;">29</text>
	</g>
	<g id="_x35_8_1_">
		
			<use xlink:href="#Icon"  width="1024" height="1024" x="-512" y="-512" transform="matrix(0.0566 0 0 -0.0566 1904 732.0294)" style="overflow:visible;"/>
		<text transform="matrix(1 0 0 1 1890.0012 805.7328)" style="font-family:'OpenSans'; font-size:20px;">58</text>
	</g>
	<g id="_x38_7">
		
			<use xlink:href="#Icon"  width="1024" height="1024" x="-512" y="-512" transform="matrix(0.085 0 0 -0.085 1708.5 732.4688)" style="overflow:visible;"/>
		<text transform="matrix(1 0 0 1 1696.8496 820.2349)" style="font-family:'OpenSans'; font-size:20px;">87</text>
	</g>
	<text id="Settings_icon_text" transform="matrix(1 0 0 1 1405.8274 707.5002)"><tspan x="0" y="0" style="font-family:'OpenSans'; font-size:33px;">Settings</tspan><tspan x="0" y="39.6" style="font-family:'OpenSans'; font-size:33px;">icon </tspan></text>
</g>
<g id="Spotlight_Icon_-_Preview_Sizes">
	<g id="_x32_9_3_">
		
			<use xlink:href="#Icon"  width="1024" height="1024" x="-512" y="-512" transform="matrix(0.0283 0 0 -0.0283 2308.5129 436.4738)" style="overflow:visible;"/>
		<text transform="matrix(1.0009 0 0 1 2293.6318 495.0719)" style="font-family:'OpenSans'; font-size:19.9639px;">29</text>
	</g>
	<g id="_x34_0_2_">
		
			<use xlink:href="#Icon"  width="1024" height="1024" x="-512" y="-512" transform="matrix(0.0391 0 0 -0.0391 2224 436)" style="overflow:visible;"/>
		<text transform="matrix(1 0 0 1 2209 500.7037)" style="font-family:'OpenSans'; font-size:20px;">40</text>
	</g>
	<g id="_x35_8_3_">
		
			<use xlink:href="#Icon"  width="1024" height="1024" x="-512" y="-512" transform="matrix(0.0566 0 0 -0.0566 2052 436.1051)" style="overflow:visible;"/>
		<text transform="matrix(1 0 0 1 2035.2112 509.8087)" style="font-family:'OpenSans'; font-size:20px;">58</text>
	</g>
	<g id="_x38_0_2_">
		
			<use xlink:href="#Icon"  width="1024" height="1024" x="-512" y="-512" transform="matrix(0.0781 0 0 -0.0781 1904 436)" style="overflow:visible;"/>
		<text transform="matrix(1 0 0 1 1890.0012 519.7036)" style="font-family:'OpenSans'; font-size:20px;">80</text>
	</g>
	<g id="_x31_20_1_">
		
			<use xlink:href="#Icon"  width="1024" height="1024" x="-512" y="-512" transform="matrix(0.1172 0 0 -0.1172 1708 436)" style="overflow:visible;"/>
		<text transform="matrix(1 0 0 1 1682.3496 539.7661)" style="font-family:'OpenSans'; font-size:20px;">120</text>
	</g>
	<text id="Spotlight_icon_text_2_" transform="matrix(1 0 0 1 1407.0913 402.0238)"><tspan x="0" y="0" style="font-family:'OpenSans'; font-size:33px;">Spotlight </tspan><tspan x="0" y="39.6" style="font-family:'OpenSans'; font-size:33px;">Icon </tspan></text>
</g>
<g id="App_Icon_-_Preview_Sizes">
	<g id="_x35_7">
		
			<use xlink:href="#Icon"  width="1024" height="1024" x="-512" y="-512" transform="matrix(0.0557 0 0 -0.0557 2320.5 116.5)" style="overflow:visible;"/>
		<text transform="matrix(1 0 0 1 2305.6055 190.2039)" style="font-family:'OpenSans'; font-size:20px;">57</text>
	</g>
	<g id="_x36_0">
		
			<use xlink:href="#Icon"  width="1024" height="1024" x="-512" y="-512" transform="matrix(0.0586 0 0 -0.0586 2228 116)" style="overflow:visible;"/>
		<text transform="matrix(1 0 0 1 2213 190.7037)" style="font-family:'OpenSans'; font-size:20px;">60</text>
	</g>
	<g id="_x31_14">
		
			<use xlink:href="#Icon"  width="1024" height="1024" x="-512" y="-512" transform="matrix(0.1111 0 0 -0.1111 2072 115.8842)" style="overflow:visible;"/>
		<text transform="matrix(1 0 0 1 2055.2456 217.3813)" style="font-family:'OpenSans'; font-size:19.9594px;">114</text>
	</g>
	<g id="_x31_20">
		
			<use xlink:href="#Icon"  width="1024" height="1024" id="XMLID_3_" x="-512" y="-512" transform="matrix(0.1172 0 0 -0.1172 1920 116)" style="overflow:visible;"/>
		<text transform="matrix(1 0 0 1 1900.0012 219.7036)" style="font-family:'OpenSans'; font-size:20px;">120</text>
	</g>
	<g id="_x31_80">
		<text transform="matrix(1 0 0 1 1682.3496 249.7661)" style="font-family:'OpenSans'; font-size:20px;">180</text>
	</g>
	<text id="App_icon_text" transform="matrix(1 0 0 1 1404.0912 63.5015)" style="font-family:'OpenSans'; font-size:33px;">App Icon </text>
	
		<use xlink:href="#Icon"  width="1024" height="1024" x="-512" y="-512" transform="matrix(0.1758 0 0 -0.1758 1708 116)" style="overflow:visible;"/>
	
		<use xlink:href="#Icon"  width="1024" height="1024" id="XMLID_37_" x="-512" y="-512" transform="matrix(1 0 0 -1 511.9999 512)" style="overflow:visible;"/>
</g>
<g id="App_Icon_and_Badge_-_Main">
</g>
<rect x="-656.38" y="168.43" class="st4" width="250.64" height="235.02"/>
<rect x="-656.38" y="522.43" class="st5" width="250.64" height="235.02"/>
<rect x="-656.38" y="934.43" class="st6" width="250.64" height="235.02"/>
</svg>
